<svg width="150" height="122" viewBox="0 0 150 122" fill="none" xmlns="http://www.w3.org/2000/svg">
<g clip-path="url(#clip0_121_60)">
<path d="M92.0626 0.284299C88.0782 -0.877042 83.9298 1.46934 82.7814 5.49848L52.7814 111.678C51.6329 115.707 53.9532 119.902 57.9376 121.064C61.922 122.225 66.0704 119.879 67.2189 115.85L97.2189 9.66983C98.3673 5.64069 96.047 1.44564 92.0626 0.284299ZM110.953 28.749C108.024 31.7116 108.024 36.5229 110.953 39.4855L131.883 60.674L110.93 81.8626C108 84.8252 108 89.6365 110.93 92.5991C113.859 95.5617 118.617 95.5617 121.547 92.5991L147.797 66.0541C150.727 63.0915 150.727 58.2803 147.797 55.3177L121.547 28.7727C118.617 25.8101 113.859 25.8101 110.93 28.7727L110.953 28.749ZM39.0704 28.749C36.1407 25.7864 31.3829 25.7864 28.4532 28.749L2.20325 55.294C-0.72644 58.2566 -0.72644 63.0678 2.20325 66.0304L28.4532 92.5754C31.3829 95.538 36.1407 95.538 39.0704 92.5754C42.0001 89.6128 42.0001 84.8015 39.0704 81.8389L18.1173 60.674L39.0704 39.4855C42.0001 36.5229 42.0001 31.7116 39.0704 28.749Z" fill="white"/>
</g>
<defs>
<clipPath id="clip0_121_60">
<rect width="150" height="121.348" fill="white"/>
</clipPath>
</defs>
</svg>
