<svg width="159" height="436" viewBox="0 0 159 436" fill="none" xmlns="http://www.w3.org/2000/svg">
<path d="M51.0068 434.999C59.6479 435.313 68.2886 435.194 76.9298 435.116C101.038 434.84 125.147 434.605 149.255 434.329C153.003 434.291 157.856 433.583 158.093 431.068C158.33 428.787 154.503 427.334 151.267 426.626C139.706 424.108 127.553 423.597 115.558 423.126C97.9211 422.418 80.2446 421.83 62.6075 421.359C51.5988 421.042 40.2748 420.808 30.0157 423.283C24.4129 424.619 16.1665 430.437 25.1232 433.346C27.6089 434.134 32.5804 433.818 35.2239 434.054C40.4717 434.408 45.7195 434.802 51.0068 434.999Z" fill="url(#paint0_linear_797_1962)"/>
<path opacity="0.22" d="M51.0068 434.999C59.6479 435.313 68.2886 435.194 76.9298 435.116C101.038 434.84 125.147 434.605 149.255 434.329C153.003 434.291 157.856 433.583 158.093 431.068C158.33 428.787 154.503 427.334 151.267 426.626C139.706 424.108 127.553 423.597 115.558 423.126C97.9211 422.418 80.2446 421.83 62.6075 421.359C51.5988 421.042 40.2748 420.808 30.0157 423.283C24.4129 424.619 16.1665 430.437 25.1232 433.346C27.6089 434.134 32.5804 433.818 35.2239 434.054C40.4717 434.408 45.7195 434.802 51.0068 434.999Z" fill="url(#paint1_linear_797_1962)"/>
<path d="M96.6517 350.68C95.8627 338.416 94.3241 326.388 93.535 314.124C90.8914 272.927 96.8886 229.374 88.4053 190.773C87.6952 187.55 86.827 184.287 85.3277 182.086C83.2364 179.02 80.3169 178.666 77.6338 178.509C63.4686 177.526 49.3034 177.408 35.1385 178.076C33.2444 178.155 31.311 178.312 29.6143 179.806C26.734 182.361 25.3138 188.257 24.4063 193.76C22.5517 205.003 21.7627 216.756 21.013 228.391C18.3693 269.035 15.6862 309.682 13.0426 350.326C12.6875 355.79 12.3324 361.411 13.1216 366.718C14.9366 379.217 19.5133 377.646 25.1557 375.68C32.1001 373.242 39.1237 371.277 46.1865 369.824C59.9966 366.953 73.9641 365.931 87.8529 366.796C90.4966 366.953 93.4559 366.953 95.271 363.535C97.007 360.232 96.9279 355.162 96.6517 350.68Z" fill="#292929"/>
<path d="M84.4979 181.655C84.4979 181.655 90.2982 374.423 90.377 405.714L79.7634 406.146C79.7634 406.146 64.4537 229.926 54.9448 220.531C54.9448 220.531 50.9989 219.824 49.4996 220.531C48.0003 221.239 40.8977 396.122 43.4231 407.719H33.4803C33.4803 407.719 14.4616 227.489 15.8031 182.913C15.8031 182.913 14.9353 160.507 45.1594 162.551C75.4229 164.556 81.4598 159.407 84.4979 181.655Z" fill="#662E2A"/>
<path d="M101.994 421.598C100.1 420.538 98.2457 419.32 96.9436 417.59C95.8388 416.134 95.1285 414.406 94.4579 412.716C93.8266 411.104 93.1953 409.491 92.5245 407.88C92.2483 407.212 91.972 406.544 91.4591 406.111C91.025 405.757 90.4725 405.56 89.9203 405.403C87.829 404.814 81.8316 404.54 79.6614 404.578C79.3459 404.578 78.9513 404.617 78.7539 404.892C78.6356 405.049 78.6356 405.286 78.6356 405.482C78.5172 411.929 78.3593 418.335 78.241 424.784C78.241 424.978 78.2412 425.215 78.3991 425.332C78.5174 425.452 78.6751 425.492 78.833 425.492C79.425 425.569 83.8438 425.649 84.4356 425.766C84.4356 424.076 84.633 422.346 84.909 420.696C84.9485 420.381 85.0669 420.027 85.3826 419.948C85.6193 419.908 85.8563 420.065 86.0534 420.222C87.2372 421.284 88.1843 422.62 88.7367 424.076C88.9734 424.744 89.2099 425.492 89.8017 425.923C90.1567 426.197 90.6306 426.277 91.0645 426.354C95.9179 427.299 100.81 428.241 105.782 428.281C107.36 428.281 111.188 427.376 109.175 425.215C108.425 424.39 106.926 424.076 105.94 423.642C104.598 423.014 103.296 422.346 101.994 421.598Z" fill="#E2E2E2"/>
<path d="M60.5888 422.69C57.6691 421.04 54.0389 420.372 51.0796 418.799C48.0415 417.149 45.8316 414.514 45.0032 411.607C44.4902 409.681 44.5298 407.557 43.1884 405.867C41.1366 405.827 36.2041 405.75 34.1524 405.71C33.8761 405.71 33.5608 405.71 33.3634 405.827C33.1267 405.986 33.0479 406.261 33.0086 406.497C31.8248 412.904 32.4954 419.547 32.8109 426.033C32.8505 426.504 32.89 427.055 33.2846 427.409C33.9552 427.997 36.9147 427.526 37.8615 427.763C38.0194 426.741 38.1378 425.679 38.2956 424.657C38.3745 424.146 38.4535 423.595 38.9272 423.281C39.7556 422.69 41.0971 423.164 41.7284 423.872C42.3596 424.577 42.6359 425.522 43.3067 426.23C44.4509 427.449 46.5025 427.723 48.3568 427.92C51.5528 428.274 54.7095 428.628 57.9055 429.019C59.7996 429.256 63.2719 429.61 63.8241 427.606C64.3371 425.679 62.246 423.635 60.5888 422.69Z" fill="#E2E2E2"/>
<path d="M40.6376 83.6265C41.4267 85.1201 41.6632 86.8498 41.9395 88.5008C42.5707 92.353 43.4785 96.2053 44.6227 99.9397C45.1357 101.591 45.767 103.32 47.0296 104.499C49.0813 106.386 52.238 106.386 55.0395 106.268C56.815 106.19 58.7879 106.032 60.011 104.775C61.1947 103.595 61.3919 101.826 61.5105 100.175C62.1023 93.5717 62.6545 87.0071 63.2463 80.4031C65.1797 79.6563 67.4682 80.8356 68.6124 82.6044C69.7566 84.3339 70.0331 86.4961 70.2698 88.5795C73.1896 115.466 78.0035 154.421 84.6322 180.64C85.0267 182.212 85.4604 183.902 84.8686 185.396C83.8823 188.03 73.742 177.377 70.9406 177.731C55.6315 179.696 30.0237 188.148 14.5565 187.755C13.649 174.39 26.4726 154.578 26.9856 141.174C27.6957 123.407 24.7759 105.089 30.5369 88.2649C31.8783 84.216 37.0863 76.9048 40.6376 83.6265Z" fill="#E2E2E2"/>
<path d="M39.4078 94.2745C40.3941 99.1882 42.4064 104.377 46.7861 106.892C50.653 109.133 55.9003 108.583 59.2541 105.635C63.7523 101.665 64.0683 94.9034 64.0683 88.9286C64.0683 86.5308 64.0683 84.0936 64.0683 81.6956C64.0683 81.0276 64.068 80.2805 63.7523 79.691C63.2788 78.669 62.1348 78.158 61.0697 77.7649C55.1511 75.7208 48.4433 76.0748 42.7219 78.5904C36.0932 81.4601 38.145 88.103 39.4078 94.2745Z" fill="#F9E9DE"/>
<path d="M118.633 371.09C115.121 345.619 104.27 231.584 102.653 205.916C101.232 183.549 100.482 161.025 96.2212 139.052C91.9597 117.039 83.9894 95.3014 69.6666 78.0058C68.2066 76.2368 66.5891 74.4681 64.4586 73.6819C62.8802 73.0922 61.144 73.1316 59.4473 73.328C59.7235 74.2321 59.9207 75.1756 59.8814 76.2761C59.8814 76.4334 59.8814 76.6299 59.8814 76.7872C60.1181 77.8486 60.1576 78.9491 59.9209 80.1284C60.2364 96.6378 63.8666 113.148 64.8924 129.618C66.155 149.862 66.3522 170.184 67.1414 190.428C67.8515 209.1 68.4828 227.771 68.1277 246.443C67.9303 258.707 69.2327 271.443 68.3647 283.627C68.2463 285.2 76.3741 375.335 75.9402 377.025C88.6847 375.375 101.43 373.959 114.293 374.941C115.792 375.061 117.567 375.061 118.356 373.802C118.83 372.977 118.751 371.995 118.633 371.09Z" fill="#333333"/>
<path d="M41.2711 280.955C35.0763 246.169 34.4845 210.751 32.4723 175.609C30.6572 143.455 28.8024 106.976 43.9934 76.9055C43.9934 76.7876 43.9934 76.6303 43.9934 76.5124C35.1156 78.7531 27.1845 82.4875 22.726 89.8774C19.9245 94.5159 20.0432 103.871 18.6228 109.021C7.18021 150.766 -0.0403509 193.927 2.91891 236.931C3.74753 249.272 5.44376 261.577 5.9567 273.921C6.43019 285.397 1.30115 379.737 14.7165 381.39C23.476 382.489 43.5593 380.525 52.3581 379.897C50.9772 376.514 41.8233 284.218 41.2711 280.955Z" fill="#333333"/>
<path d="M31.5079 47.2622C32.6521 54.4555 34.1904 62.1207 39.4382 67.1916C43.226 70.8866 48.7897 72.734 54.0375 72.0657C59.3248 71.3976 64.2175 68.2134 66.9401 63.6931C68.2422 61.5311 69.0707 59.1333 69.7808 56.7356C72.1088 48.8346 73.253 40.5403 73.1347 32.325C73.0951 29.4553 72.8191 26.3107 70.8857 24.1486C68.913 21.9081 65.7563 21.2398 62.8363 20.6895C56.8389 19.5889 50.6836 18.449 44.6469 19.3138C39.5568 20.0214 32.6912 22.8123 30.2055 27.7259C27.6408 32.836 30.6396 41.6802 31.5079 47.2622Z" fill="#F9E9DE"/>
<path d="M0.500892 153.197C-1.55087 136.452 2.90798 119.392 10.0892 104.101C11.9831 100.091 14.1137 96.1209 16.9152 92.6226C19.4009 89.5565 22.3997 86.9229 25.7929 84.8395C28.2788 83.3065 31.7511 82.2059 33.8424 84.2106C34.9866 85.3114 35.2628 87.0015 35.4207 88.5345C36.2099 97.8506 33.132 107.049 29.3442 115.618C25.5169 124.148 20.9006 132.403 18.2175 141.365C17.1127 145.099 16.3235 148.952 15.6132 152.804C13.8771 162.395 12.575 172.812 17.0731 181.46C16.9153 181.106 10.6417 182.796 9.26071 181.814C7.28786 180.438 6.61671 176.232 5.90649 174.188C3.46014 167.348 1.4084 160.391 0.500892 153.197Z" fill="#292929"/>
<path d="M10.711 194.505C10.711 195.252 10.7504 196.038 11.1845 196.628C11.5396 197.178 12.1315 197.492 12.7233 197.767C14.0254 198.357 15.4456 198.75 16.866 198.868C18.0103 198.986 19.2337 198.907 20.1413 198.161C20.9699 197.453 21.3248 196.313 21.4037 195.252C21.5615 193.326 21.1667 191.4 20.2198 189.709C19.549 188.53 18.6417 187.469 18.0104 186.289C17.2213 184.835 16.7873 183.184 16.0771 181.651C15.6431 180.708 14.9722 179.764 14.0252 179.41C13.2361 179.135 12.3287 179.253 11.6579 179.804C10.8293 180.472 10.7895 181.297 10.829 182.241C10.9079 183.538 10.7899 184.835 10.7505 186.132C10.6321 188.923 10.6321 191.714 10.711 194.505Z" fill="#F9E9DE"/>
<path d="M27.1339 187.988C27.3706 187.988 27.6866 187.949 27.8443 188.145C28.0022 188.303 28.0419 188.499 28.0815 188.735C29.0283 194.906 29.4622 201.117 29.3833 207.367C29.3833 207.957 29.344 208.546 29.0283 209.018C28.752 209.411 28.3179 209.647 27.8838 209.844C22.2021 212.595 15.3364 212.713 9.53628 210.237C9.0628 210.04 8.58951 209.804 8.27386 209.45C7.87929 209.018 7.76078 208.389 7.64242 207.799C6.89273 203.987 4.13075 193.216 8.15537 190.661C10.1677 189.364 14.0343 189.914 16.3228 189.56C19.9528 189.089 23.5039 188.263 27.1339 187.988Z" fill="#292929"/>
<path d="M129.727 194.283C125.623 174.983 120.375 155.918 113.983 137.246C113.786 136.696 113.589 136.146 113.115 135.831C112.563 135.477 111.853 135.556 111.221 135.634C108.696 134.377 105.816 133.944 102.975 134.102C99.779 134.298 96.6618 135.124 93.5842 135.949C89.3623 137.089 85.1006 138.229 80.9578 139.683C79.6952 140.116 76.7359 140.627 76.6966 142.081C76.4599 142.081 76.1835 142.121 75.9465 142.121C78.6298 148.449 80.6421 155.053 81.8651 161.814C82.5755 165.706 83.0494 169.637 84.3119 173.41C85.1406 175.965 86.3239 178.363 87.3498 180.879C90.3484 188.229 91.8877 196.091 94.0974 203.717C94.255 204.267 94.4522 204.818 94.8863 205.171C95.2413 205.447 95.6755 205.525 96.1096 205.604C97.8456 205.918 99.3842 205.289 101.12 205.604C101.988 207.805 126.688 196.799 128.819 195.855C129.174 195.698 129.53 195.501 129.687 195.187C129.885 194.873 129.806 194.558 129.727 194.283Z" fill="#E2E2E2"/>
<path d="M108.417 167.011C108.18 166.618 107.864 166.264 107.509 166.225C107.114 166.186 106.799 166.54 106.444 166.815C106.128 167.09 105.734 167.365 105.379 167.168C105.142 167.05 105.023 166.618 105.063 166.304C104.786 166.618 104.392 166.697 104.076 166.461C103.682 166.146 103.524 165.36 103.8 164.849C103.485 165.242 102.932 164.928 102.774 164.417C102.617 163.906 102.695 163.277 102.814 162.726C102.893 162.412 101.157 162.569 100.999 162.766C100.604 163.198 100.683 163.67 100.604 164.299C100.288 166.186 99.4601 167.758 98.8681 169.487C97.8818 172.318 97.7237 175.934 99.1441 178.371C100.091 179.944 101.59 180.848 103.09 180.887C104.589 180.926 106.049 180.179 107.273 178.961C107.943 178.253 108.575 177.428 108.969 176.406C109.482 175.148 109.6 173.693 109.6 172.278C109.561 170.392 109.285 168.465 108.417 167.011Z" fill="white"/>
<path d="M100.95 161.27C101.423 160.602 100.358 159.029 99.9239 158.636C99.1347 157.889 97.9905 157.614 96.9646 157.85C97.2801 158.794 97.6747 159.737 98.3453 160.484C98.7399 160.877 100.397 162.017 100.95 161.27Z" fill="white"/>
<path d="M111.14 190.105C111.495 190.105 113.547 189.87 114.099 189.634C114.415 189.516 116.546 189.083 116.822 188.965C115.954 181.025 112.521 173.438 111.298 165.538C108.655 148.792 105.972 131.85 99.5402 116.127C95.6734 106.693 90.5042 97.8089 85.0197 89.2002C82.9284 85.9377 80.6797 82.5965 77.4049 80.4345C74.1299 78.2726 69.5922 77.6434 66.3962 79.8448C63.279 82.0067 62.2927 86.2915 63.0028 90.0258C63.7131 93.7208 65.7251 97.0227 67.6981 100.285C77.3649 116.323 85.6115 133.108 93.8186 149.932C97.7249 157.872 101.631 165.852 104.788 174.146C106.327 178.116 108.063 185.978 111.14 190.105Z" fill="#292929"/>
<path d="M111.482 202.929C111.482 203.676 111.521 204.462 111.955 205.052C112.311 205.602 112.902 205.916 113.494 206.192C114.796 206.781 116.217 207.174 117.637 207.292C118.782 207.41 120.005 207.332 120.912 206.585C121.741 205.877 122.096 204.737 122.175 203.676C122.333 201.75 121.938 199.824 120.991 198.133C120.321 196.954 119.413 195.893 118.782 194.714C117.993 193.259 117.559 191.608 116.849 190.075C116.414 189.132 115.744 188.188 114.797 187.834C114.008 187.559 113.1 187.677 112.429 188.228C111.6 188.896 111.561 189.721 111.601 190.665C111.679 191.962 111.561 193.259 111.521 194.556C111.403 197.347 111.403 200.177 111.482 202.929Z" fill="#F9E9DE"/>
<path d="M102.144 61.7294C101.276 63.8913 98.0403 64.1272 96.1857 62.6727C94.3706 61.2578 93.661 58.8206 93.148 56.5799C90.9777 46.3597 91.5301 35.6678 88.7287 25.6049C87.032 19.512 84.1123 13.7731 80.2059 8.78095C77.957 5.95072 75.3134 3.27757 71.92 1.9804C69.7104 1.11561 67.264 0.91928 64.8965 0.722738C61.74 0.486888 58.5833 0.250902 55.4268 0.0936676C53.2567 -0.024258 51.0471 -0.142039 48.9953 0.486897C46.904 1.07652 44.9708 2.49155 44.3 4.57491C38.7367 2.13777 31.5951 4.06387 28.0438 8.97743C25.992 11.7683 25.1235 15.2667 24.6501 18.6865C23.1113 30.0467 25.3607 41.5642 24.9661 53.0031C24.8478 56.8553 24.2951 60.9434 21.7698 63.8522C19.284 66.761 14.1943 67.7436 11.5901 64.9134C12.0241 67.94 14.2337 70.5345 16.9562 72.0281C19.6787 73.4826 22.7959 73.9939 25.8734 74.1509C30.2927 74.3476 34.8697 73.8364 38.6181 71.5171C40.0779 70.613 41.4986 69.1194 41.2224 67.4293C41.0645 66.5643 40.5118 65.8569 39.9988 65.1492C34.2381 57.6019 30.6873 48.404 29.8586 38.97C29.3852 33.6238 30.1741 27.4523 34.5539 24.3468C38.105 21.8312 42.8796 22.1458 47.1014 23.2464C47.5748 23.3644 48.0878 23.5215 48.6007 23.3643C49.0348 23.2463 49.4297 22.9318 49.7847 22.6174C51.3236 21.2809 52.3097 19.748 54.4798 19.5908C56.4923 19.4729 58.544 20.2983 60.0433 21.5562C62.253 23.4037 63.5941 26.0374 64.62 28.7104C65.7643 31.6191 66.672 34.6064 67.3033 37.6725C67.6191 37.3188 67.9348 36.9651 68.4083 36.7686C69.9471 36.0218 71.5647 36.8078 72.3146 38.2229C73.1036 39.7953 72.8666 41.5642 72.117 43.0578C71.3278 44.6302 69.8683 45.8095 69.5132 47.5784C69.3948 48.2467 68.9212 48.6398 68.4083 48.7971C68.4083 50.3301 68.3687 51.8629 68.2108 53.3959C67.9346 56.5014 67.3821 59.5674 67.6979 62.6727C68.5264 70.8488 76.2995 77.6889 84.5461 77.5707C87.1108 77.5316 89.6756 76.9027 92.0826 76.0771C95.2391 75.0157 98.3563 73.5218 100.526 71.0061C102.696 68.4511 103.683 64.6776 102.144 61.7294Z" fill="#EBEFEB"/>
<path d="M33.1667 52.7352C30.602 52.6173 28.0375 52.46 25.5517 52.1456C25.3545 52.1062 25.1966 52.0671 24.9992 52.0277C24.9992 52.3423 24.9992 52.6566 24.9992 52.9712C24.8808 56.8232 24.3284 60.9116 21.803 63.8203C19.3172 66.7291 14.2275 67.7118 11.6233 64.8815C12.0573 67.9082 14.2669 70.5026 16.9894 71.9963C19.7119 73.4508 22.8291 73.9618 25.9067 74.1191C30.3258 74.3158 34.9027 73.8047 38.6512 71.4855C40.1112 70.5814 41.5317 69.0875 41.2557 67.3972C41.0978 66.5324 40.5451 65.8248 40.0321 65.1173C37.2307 61.3436 34.9027 57.1772 33.1667 52.7352Z" fill="#D5AFCB"/>
<path d="M96.223 62.6792C94.408 61.2641 93.6981 58.827 93.1851 56.5865C92.9091 55.2499 92.6722 53.9135 92.4748 52.5771C84.3466 52.9703 76.1002 52.8127 68.2482 52.8521C68.2482 53.0094 68.2482 53.2058 68.2087 53.3631C67.9324 56.4686 67.38 59.5346 67.6957 62.6401C68.5242 70.8162 76.2974 77.6558 84.544 77.5379C87.1087 77.4985 89.6734 76.8696 92.0804 76.0443C95.2369 74.9829 98.3541 73.4892 100.524 70.9735C102.694 68.4576 103.641 64.6839 102.142 61.7357C101.274 63.8979 98.0381 64.1337 96.223 62.6792Z" fill="#D5AFCB"/>
<path d="M70.8097 42.4219C70.8492 42.2252 70.9283 42.0679 70.9676 41.8715C70.9676 41.7536 70.9676 41.6748 70.9676 41.5569C70.9676 41.5175 70.9676 41.4784 70.9676 41.4784C70.9676 41.3213 70.928 41.1247 70.8887 40.9674C70.7309 40.142 70.2965 39.3558 69.6257 39.0021C68.4026 38.2944 67.5741 39.4735 67.2584 40.5349C66.9821 41.5175 67.1798 42.6183 67.969 43.2472C68.0873 43.4437 68.2845 43.6012 68.4424 43.6403C68.7974 43.7191 69.0341 43.7191 69.3497 43.6797C69.4287 43.6797 69.4678 43.6797 69.5469 43.6797C69.9019 44.7805 69.9414 45.9202 69.5469 47.2174C69.2311 48.2788 71.0069 48.6325 71.1252 47.4138C71.3224 45.7629 71.2438 44.0334 70.8097 42.4219Z" fill="white"/>
<path d="M70.2627 47.885C68.1321 61.3677 63.6735 75.8724 57.9916 88.2546C53.0594 98.9073 45.2076 107.28 39.8415 117.539C37.0401 122.925 34.9488 128.624 32.0291 134.01C29.3065 139.041 26.1102 143.837 23.8218 149.104C19.4815 159.128 19.3235 169.859 19.718 180.59C19.718 181.062 20.468 181.062 20.468 180.59C20.6652 166.164 20.3891 154.175 29.3458 141.007C35.6985 131.651 38.4603 120.095 45.0891 110.896C51.7573 101.619 57.3999 92.6966 62.0954 82.2406C66.7119 72.0989 70.894 59.3234 70.6573 47.9633C70.6178 47.7274 70.3022 47.6489 70.2627 47.885Z" fill="#F7F7F7"/>
<path d="M42.5972 87.3894C35.8499 71.312 36.0867 69.3859 36.5601 58.8907C36.5601 58.6155 36.1655 58.5762 36.0867 58.812C31.9436 74.7318 46.5034 90.0621 46.5034 106.139C46.5034 107.515 47.4109 107.358 47.4109 105.982C47.3318 99.0639 45.2408 93.6786 42.5972 87.3894Z" fill="#F7F7F7"/>
<path d="M47.8123 108.267C48.0095 107.873 48.0883 107.441 48.1276 107.087C48.1672 106.852 48.1276 106.655 48.0488 106.498C47.8909 105.908 47.4571 105.515 46.6679 105.633C45.9182 105.79 45.6025 106.38 45.1291 107.048C44.5766 107.834 44.0634 108.66 43.5112 109.485C42.6036 110.861 42.0512 112.433 43.5112 112.905C43.59 112.944 43.6295 112.984 43.6691 113.023C44.1425 113.298 44.7738 112.866 45.0895 112.315C45.9575 110.94 47.102 109.721 47.8123 108.267Z" fill="#F7F7F7"/>
<defs>
<linearGradient id="paint0_linear_797_1962" x1="21.3595" y1="425.977" x2="157.992" y2="432.729" gradientUnits="userSpaceOnUse">
<stop stop-color="white"/>
<stop offset="1"/>
</linearGradient>
<linearGradient id="paint1_linear_797_1962" x1="21.3595" y1="425.977" x2="157.992" y2="432.729" gradientUnits="userSpaceOnUse">
<stop/>
<stop offset="1"/>
</linearGradient>
</defs>
</svg>
