<svg width="159" height="391" viewBox="0 0 159 391" fill="none" xmlns="http://www.w3.org/2000/svg">
<path d="M96.6517 350.68C95.8627 338.416 94.3241 326.388 93.535 314.124C90.8914 272.927 96.8886 229.374 88.4053 190.773C87.6952 187.55 86.827 184.287 85.3277 182.086C83.2364 179.019 80.3168 178.666 77.6338 178.508C63.4686 177.526 49.3034 177.408 35.1385 178.076C33.2444 178.155 31.311 178.312 29.6143 179.806C26.734 182.361 25.3138 188.257 24.4063 193.76C22.5517 205.003 21.7627 216.756 21.013 228.391C18.3693 269.035 15.6862 309.682 13.0426 350.326C12.6875 355.79 12.3324 361.411 13.1216 366.718C14.9366 379.217 19.5133 377.646 25.1557 375.68C32.1001 373.242 39.1237 371.277 46.1865 369.824C59.9966 366.953 73.9641 365.931 87.8529 366.796C90.4966 366.953 93.4559 366.953 95.271 363.535C97.007 360.232 96.9279 355.162 96.6517 350.68Z" fill="#292929"/>
<path d="M84.4979 181.655C84.4979 181.655 90.2982 374.423 90.377 405.714L79.7634 406.146C79.7634 406.146 64.4537 229.926 54.9448 220.531C54.9448 220.531 50.9989 219.824 49.4996 220.531C48.0003 221.239 40.8977 396.122 43.4231 407.718H33.4803C33.4803 407.718 14.4616 227.489 15.8031 182.913C15.8031 182.913 14.9353 160.507 45.1594 162.551C75.4229 164.556 81.4598 159.406 84.4979 181.655Z" fill="#662E2A"/>
<path d="M40.6378 83.6265C41.427 85.1201 41.6635 86.8498 41.9397 88.5008C42.571 92.353 43.4788 96.2053 44.623 99.9397C45.1359 101.591 45.7672 103.32 47.0298 104.499C49.0816 106.386 52.2383 106.386 55.0397 106.268C56.8152 106.19 58.7882 106.032 60.0112 104.775C61.195 103.595 61.3922 101.826 61.5108 100.175C62.1025 93.5717 62.6548 87.0071 63.2465 80.4031C65.1799 79.6563 67.4684 80.8356 68.6126 82.6044C69.7569 84.3339 70.0333 86.4961 70.2701 88.5795C73.1898 115.466 78.0037 154.421 84.6324 180.64C85.027 182.212 85.4606 183.902 84.8689 185.396C83.8825 188.03 73.7423 177.377 70.9409 177.731C55.6317 179.696 30.0239 188.148 14.5567 187.755C13.6492 174.39 26.4729 154.578 26.9858 141.174C27.6959 123.407 24.7762 105.089 30.5371 88.2649C31.8785 84.216 37.0865 76.9048 40.6378 83.6265Z" fill="#E2E2E2"/>
<path d="M39.4078 94.2744C40.3941 99.188 42.4064 104.376 46.7861 106.892C50.653 109.133 55.9003 108.583 59.2541 105.635C63.7523 101.665 64.0683 94.9033 64.0683 88.9284C64.0683 86.5307 64.0683 84.0935 64.0683 81.6955C64.0683 81.0275 64.068 80.2804 63.7523 79.6909C63.2788 78.6688 62.1348 78.1578 61.0697 77.7647C55.1511 75.7207 48.4433 76.0746 42.7219 78.5903C36.0932 81.4599 38.145 88.1028 39.4078 94.2744Z" fill="#F9E9DE"/>
<path d="M118.633 371.09C115.121 345.619 104.27 231.584 102.653 205.916C101.232 183.549 100.482 161.025 96.2211 139.052C91.9597 117.039 83.9894 95.3014 69.6666 78.0058C68.2066 76.2367 66.5891 74.4681 64.4586 73.6819C62.8802 73.0921 61.144 73.1315 59.4473 73.3279C59.7235 74.232 59.9207 75.1755 59.8814 76.2761C59.8814 76.4334 59.8814 76.6298 59.8814 76.7871C60.1181 77.8485 60.1576 78.949 59.9209 80.1284C60.2364 96.6378 63.8666 113.148 64.8924 129.618C66.155 149.862 66.3522 170.184 67.1414 190.428C67.8515 209.099 68.4828 227.771 68.1277 246.443C67.9303 258.707 69.2327 271.443 68.3647 283.627C68.2463 285.2 76.3741 375.335 75.9402 377.025C88.6847 375.375 101.43 373.959 114.293 374.941C115.792 375.061 117.567 375.061 118.356 373.802C118.83 372.977 118.751 371.995 118.633 371.09Z" fill="#333333"/>
<path d="M41.2708 280.955C35.076 246.169 34.4842 210.751 32.472 175.609C30.657 143.455 28.8021 106.976 43.9932 76.9054C43.9932 76.7875 43.9932 76.6302 43.9932 76.5123C35.1153 78.753 27.1842 82.4874 22.7257 89.8774C19.9242 94.5159 20.043 103.871 18.6225 109.021C7.17996 150.766 -0.0405951 193.927 2.91867 236.931C3.74728 249.272 5.44352 261.577 5.95646 273.921C6.42994 285.397 1.3009 379.737 14.7163 381.39C23.4758 382.489 43.5591 380.525 52.3579 379.897C50.977 376.514 41.8231 284.218 41.2708 280.955Z" fill="#333333"/>
<path d="M31.5076 47.2621C32.6518 54.4554 34.1902 62.1206 39.438 67.1916C43.2257 70.8865 48.7895 72.7339 54.0373 72.0656C59.3246 71.3975 64.2173 68.2133 66.9398 63.693C68.242 61.5311 69.0704 59.1333 69.7805 56.7355C72.1085 48.8345 73.2528 40.5402 73.1344 32.3249C73.0949 29.4553 72.8189 26.3107 70.8855 24.1485C68.9128 21.908 65.7561 21.2398 62.8361 20.6895C56.8387 19.5888 50.6834 18.449 44.6467 19.3137C39.5566 20.0213 32.6909 22.8123 30.2053 27.7258C27.6406 32.8359 30.6394 41.6802 31.5076 47.2621Z" fill="#F9E9DE"/>
<path d="M0.500892 153.197C-1.55087 136.452 2.90798 119.392 10.0892 104.101C11.9831 100.091 14.1137 96.1208 16.9152 92.6225C19.4009 89.5565 22.3997 86.9229 25.7929 84.8395C28.2788 83.3064 31.7511 82.2059 33.8424 84.2105C34.9866 85.3113 35.2628 87.0014 35.4207 88.5344C36.2099 97.8505 33.132 107.049 29.3442 115.618C25.5169 124.148 20.9006 132.403 18.2175 141.365C17.1127 145.099 16.3235 148.952 15.6132 152.804C13.8771 162.395 12.575 172.812 17.0731 181.46C16.9153 181.106 10.6417 182.796 9.26071 181.814C7.28786 180.438 6.61671 176.232 5.90649 174.188C3.46014 167.348 1.4084 160.391 0.500892 153.197Z" fill="#292929"/>
<path d="M10.7112 194.505C10.7112 195.252 10.7507 196.038 11.1847 196.627C11.5398 197.178 12.1317 197.492 12.7236 197.767C14.0257 198.357 15.4458 198.75 16.8663 198.868C18.0105 198.986 19.234 198.907 20.1415 198.16C20.9701 197.453 21.325 196.313 21.4039 195.252C21.5618 193.326 21.167 191.399 20.22 189.709C19.5493 188.53 18.642 187.469 18.0107 186.289C17.2215 184.835 16.7875 183.184 16.0773 181.651C15.6433 180.708 14.9725 179.764 14.0255 179.41C13.2363 179.135 12.3289 179.253 11.6582 179.803C10.8296 180.472 10.7898 181.297 10.8292 182.241C10.9082 183.538 10.7902 184.835 10.7507 186.132C10.6323 188.923 10.6323 191.714 10.7112 194.505Z" fill="#F9E9DE"/>
<path d="M27.1337 187.988C27.3704 187.988 27.6864 187.949 27.844 188.145C28.0019 188.303 28.0417 188.499 28.0812 188.735C29.028 194.906 29.4619 201.117 29.3831 207.367C29.3831 207.957 29.3438 208.546 29.028 209.018C28.7518 209.411 28.3177 209.647 27.8836 209.844C22.2018 212.595 15.3362 212.713 9.53604 210.237C9.06256 210.04 8.58926 209.804 8.27362 209.45C7.87905 209.018 7.76053 208.389 7.64218 207.8C6.89249 203.987 4.13051 193.216 8.15512 190.661C10.1675 189.364 14.034 189.914 16.3225 189.56C19.9526 189.089 23.5037 188.263 27.1337 187.988Z" fill="#292929"/>
<path d="M129.727 194.283C125.623 174.982 120.375 155.918 113.983 137.246C113.786 136.696 113.589 136.146 113.115 135.831C112.563 135.477 111.853 135.556 111.222 135.634C108.696 134.377 105.816 133.944 102.975 134.102C99.7792 134.298 96.6621 135.124 93.5844 135.949C89.3625 137.089 85.1009 138.229 80.9581 139.683C79.6955 140.116 76.7362 140.627 76.6969 142.081C76.4602 142.081 76.1837 142.12 75.9468 142.12C78.6301 148.449 80.6423 155.053 81.8654 161.814C82.5757 165.706 83.0496 169.637 84.3122 173.41C85.1409 175.965 86.3242 178.363 87.3501 180.879C90.3487 188.229 91.888 196.091 94.0976 203.717C94.2552 204.267 94.4524 204.818 94.8865 205.171C95.2416 205.446 95.6757 205.525 96.1098 205.604C97.8458 205.918 99.3844 205.289 101.12 205.604C101.988 207.805 126.689 196.799 128.819 195.855C129.175 195.698 129.53 195.501 129.688 195.187C129.885 194.873 129.806 194.558 129.727 194.283Z" fill="#E2E2E2"/>
<path d="M108.418 167.011C108.181 166.618 107.865 166.264 107.51 166.225C107.115 166.186 106.8 166.54 106.445 166.815C106.129 167.09 105.734 167.365 105.379 167.168C105.142 167.05 105.024 166.618 105.063 166.303C104.787 166.618 104.392 166.697 104.077 166.461C103.682 166.146 103.525 165.36 103.801 164.849C103.485 165.242 102.933 164.928 102.775 164.417C102.617 163.906 102.696 163.277 102.814 162.726C102.893 162.412 101.157 162.569 100.999 162.766C100.605 163.198 100.683 163.67 100.605 164.299C100.289 166.186 99.4606 167.758 98.8686 169.487C97.8823 172.318 97.7241 175.934 99.1446 178.371C100.092 179.944 101.591 180.848 103.09 180.887C104.59 180.926 106.05 180.179 107.273 178.961C107.944 178.253 108.575 177.428 108.97 176.406C109.483 175.148 109.601 173.693 109.601 172.278C109.561 170.392 109.286 168.465 108.418 167.011Z" fill="white"/>
<path d="M100.95 161.27C101.423 160.602 100.358 159.029 99.9241 158.636C99.135 157.889 97.9907 157.614 96.9648 157.85C97.2804 158.793 97.675 159.737 98.3455 160.484C98.7401 160.877 100.398 162.017 100.95 161.27Z" fill="white"/>
<path d="M111.14 190.105C111.495 190.105 113.547 189.869 114.099 189.634C114.415 189.516 116.546 189.083 116.822 188.965C115.954 181.025 112.521 173.438 111.298 165.537C108.655 148.792 105.972 131.85 99.5402 116.127C95.6734 106.693 90.5042 97.8088 85.0197 89.2001C82.9284 85.9376 80.6797 82.5964 77.4049 80.4344C74.1299 78.2725 69.5922 77.6433 66.3962 79.8446C63.279 82.0066 62.2927 86.2913 63.0028 90.0257C63.7131 93.7207 65.7251 97.0226 67.6981 100.285C77.3649 116.323 85.6115 133.108 93.8186 149.932C97.7249 157.872 101.631 165.852 104.788 174.146C106.327 178.116 108.063 185.978 111.14 190.105Z" fill="#292929"/>
<path d="M111.482 202.929C111.482 203.676 111.521 204.462 111.955 205.052C112.31 205.602 112.902 205.916 113.494 206.192C114.796 206.781 116.217 207.174 117.637 207.292C118.781 207.41 120.005 207.332 120.912 206.585C121.741 205.877 122.096 204.737 122.175 203.676C122.333 201.75 121.938 199.824 120.991 198.133C120.32 196.954 119.413 195.893 118.782 194.714C117.993 193.259 117.559 191.608 116.848 190.075C116.414 189.132 115.743 188.188 114.797 187.834C114.007 187.559 113.099 187.677 112.429 188.227C111.6 188.896 111.561 189.721 111.6 190.665C111.679 191.962 111.561 193.259 111.521 194.556C111.403 197.347 111.403 200.177 111.482 202.929Z" fill="#F9E9DE"/>
<path d="M102.144 61.7294C101.276 63.8913 98.04 64.1272 96.1854 62.6727C94.3704 61.2578 93.6607 58.8206 93.1478 56.5799C90.9774 46.3597 91.5299 35.6678 88.7285 25.6049C87.0318 19.512 84.112 13.7731 80.2057 8.78095C77.9567 5.95072 75.3132 3.27757 71.9198 1.9804C69.7101 1.11561 67.2638 0.91928 64.8962 0.722738C61.7398 0.486888 58.5831 0.250902 55.4266 0.0936676C53.2565 -0.024258 51.0468 -0.142039 48.9951 0.486897C46.9038 1.07652 44.9706 2.49155 44.2998 4.57491C38.7365 2.13777 31.5948 4.06387 28.0435 8.97743C25.9918 11.7683 25.1233 15.2667 24.6499 18.6865C23.111 30.0467 25.3605 41.5642 24.9659 53.0031C24.8475 56.8553 24.2948 60.9434 21.7696 63.8522C19.2838 66.761 14.194 67.7436 11.5898 64.9134C12.0239 67.94 14.2334 70.5345 16.9559 72.0281C19.6785 73.4826 22.7956 73.9939 25.8732 74.1509C30.2925 74.3476 34.8694 73.8364 38.6179 71.5171C40.0777 70.613 41.4984 69.1194 41.2221 67.4293C41.0642 66.5643 40.5115 65.8569 39.9986 65.1492C34.2379 57.6019 30.6871 48.404 29.8584 38.97C29.385 33.6238 30.1739 27.4523 34.5537 24.3468C38.1047 21.8312 42.8793 22.1458 47.1012 23.2464C47.5746 23.3644 48.0875 23.5215 48.6005 23.3643C49.0346 23.2463 49.4294 22.9318 49.7845 22.6174C51.3233 21.2809 52.3094 19.748 54.4795 19.5908C56.492 19.4729 58.5438 20.2983 60.0431 21.5562C62.2527 23.4037 63.5939 26.0374 64.6198 28.7104C65.764 31.6191 66.6718 34.6064 67.3031 37.6725C67.6188 37.3188 67.9346 36.9651 68.408 36.7686C69.9468 36.0218 71.5645 36.8078 72.3144 38.2229C73.1033 39.7953 72.8664 41.5642 72.1167 43.0578C71.3275 44.6302 69.868 45.8095 69.513 47.5784C69.3946 48.2467 68.921 48.6398 68.408 48.7971C68.408 50.3301 68.3685 51.8629 68.2106 53.3959C67.9344 56.5014 67.3819 59.5674 67.6977 62.6727C68.5261 70.8488 76.2993 77.6889 84.5459 77.5707C87.1106 77.5316 89.6753 76.9027 92.0824 76.0771C95.2388 75.0157 98.356 73.5218 100.526 71.0061C102.696 68.4511 103.682 64.6776 102.144 61.7294Z" fill="#EBEFEB"/>
<path d="M33.167 52.7352C30.6023 52.6173 28.0378 52.46 25.5519 52.1456C25.3547 52.1062 25.1969 52.0671 24.9994 52.0277C24.9994 52.3423 24.9994 52.6566 24.9994 52.9712C24.8811 56.8232 24.3286 60.9116 21.8033 63.8203C19.3175 66.7291 14.2277 67.7118 11.6235 64.8815C12.0576 67.9082 14.2671 70.5026 16.9896 71.9963C19.7122 73.4508 22.8293 73.9618 25.907 74.1191C30.326 74.3158 34.903 73.8047 38.6514 71.4855C40.1114 70.5814 41.5319 69.0875 41.2559 67.3972C41.098 66.5324 40.5453 65.8248 40.0324 65.1173C37.231 61.3436 34.903 57.1772 33.167 52.7352Z" fill="#D5AFCB"/>
<path d="M96.223 62.6792C94.408 61.2641 93.6981 58.827 93.1851 56.5865C92.9091 55.2499 92.6722 53.9135 92.4748 52.5771C84.3466 52.9703 76.1002 52.8127 68.2482 52.8521C68.2482 53.0094 68.2482 53.2058 68.2087 53.3631C67.9324 56.4686 67.38 59.5346 67.6957 62.6401C68.5242 70.8162 76.2974 77.6558 84.544 77.5379C87.1087 77.4985 89.6734 76.8696 92.0804 76.0443C95.2369 74.9829 98.3541 73.4892 100.524 70.9735C102.694 68.4576 103.641 64.6839 102.142 61.7357C101.274 63.8979 98.0381 64.1337 96.223 62.6792Z" fill="#D5AFCB"/>
<path d="M70.8094 42.4218C70.849 42.2251 70.928 42.0679 70.9673 41.8714C70.9673 41.7535 70.9673 41.6747 70.9673 41.5568C70.9673 41.5175 70.9673 41.4783 70.9673 41.4783C70.9673 41.3213 70.9278 41.1246 70.8885 40.9673C70.7306 40.142 70.2963 39.3557 69.6254 39.002C68.4024 38.2943 67.5739 39.4734 67.2581 40.5348C66.9819 41.5175 67.1796 42.6182 67.9687 43.2472C68.0871 43.4436 68.2843 43.6011 68.4421 43.6403C68.7972 43.719 69.0339 43.719 69.3494 43.6796C69.4285 43.6796 69.4675 43.6796 69.5466 43.6796C69.9017 44.7804 69.9412 45.9201 69.5466 47.2173C69.2308 48.2787 71.0066 48.6325 71.125 47.4138C71.3221 45.7628 71.2436 44.0334 70.8094 42.4218Z" fill="white"/>
<path d="M70.2627 47.885C68.1321 61.3677 63.6735 75.8725 57.9916 88.2547C53.0594 98.9073 45.2076 107.28 39.8415 117.54C37.0401 122.925 34.9488 128.625 32.0291 134.01C29.3065 139.041 26.1102 143.837 23.8218 149.104C19.4815 159.128 19.3235 169.859 19.718 180.59C19.718 181.062 20.468 181.062 20.468 180.59C20.6652 166.164 20.3891 154.175 29.3458 141.007C35.6985 131.651 38.4603 120.095 45.0891 110.896C51.7573 101.619 57.3999 92.6967 62.0954 82.2407C66.7119 72.099 70.894 59.3235 70.6573 47.9633C70.6178 47.7275 70.3022 47.649 70.2627 47.885Z" fill="#F7F7F7"/>
<path d="M42.5972 87.3894C35.8499 71.312 36.0867 69.3858 36.5601 58.8907C36.5601 58.6155 36.1655 58.5761 36.0867 58.8119C31.9436 74.7318 46.5034 90.0621 46.5034 106.139C46.5034 107.515 47.4109 107.358 47.4109 105.982C47.3318 99.0639 45.2408 93.6785 42.5972 87.3894Z" fill="#F7F7F7"/>
<path d="M47.8121 108.267C48.0093 107.873 48.0881 107.441 48.1274 107.087C48.1669 106.852 48.1274 106.655 48.0486 106.498C47.8907 105.908 47.4568 105.515 46.6676 105.633C45.918 105.79 45.6022 106.38 45.1288 107.048C44.5763 107.834 44.0632 108.66 43.5109 109.485C42.6034 110.861 42.0509 112.433 43.5109 112.905C43.5898 112.944 43.6293 112.984 43.6688 113.023C44.1422 113.298 44.7735 112.866 45.0893 112.315C45.9573 110.94 47.1017 109.721 47.8121 108.267Z" fill="#F7F7F7"/>
</svg>
