<svg width="237" height="392" viewBox="0 0 237 392" fill="none" xmlns="http://www.w3.org/2000/svg">
<mask id="mask0_641_993" style="mask-type:alpha" maskUnits="userSpaceOnUse" x="0" y="0" width="237" height="392">
<path d="M0 0H237V392H0V0Z" fill="#34495E"/>
</mask>
<g mask="url(#mask0_641_993)">
<path d="M63.8048 228.037C70.5649 223.965 79.3609 226.132 83.4327 232.918C87.5044 239.678 85.3381 248.474 78.5518 252.546C71.7917 256.618 62.9956 254.451 58.9239 247.665C54.8522 240.931 57.0446 232.135 63.8048 228.037Z" fill="#FCC9A7"/>
<path d="M80.0133 229.049C79.5435 228.684 54.4344 199.189 54.4344 199.189L44.1768 211.614L66.8324 240.298L80.0133 229.049Z" fill="#FCC9A7"/>
<path d="M126.995 81.4089L108.907 82.975L80.1436 99.1837V214.445H156.906V99.1837L126.995 81.4089Z" fill="#54585A"/>
<path d="M122.035 93.0092H116.841C111.465 93.0092 107.106 88.6503 107.106 83.2735V63.75H131.745V83.2735C131.771 88.6503 127.412 93.0092 122.035 93.0092Z" fill="#FCC9A7"/>
<path d="M107.106 73.6944C107.106 73.6944 110.943 81.3942 119.66 81.3942C128.378 81.3942 131.745 73.5378 131.745 73.5378L107.106 73.6944Z" fill="#F4BE9A"/>
<path d="M119.712 76.8852H118.903C106.349 76.8852 96.0128 66.9669 95.5168 54.4123L95.0731 41.91C94.5511 28.6245 105.174 17.5839 118.46 17.5839H120.156C130.205 17.5839 144.065 28.6245 143.543 41.91L143.099 54.4123C142.603 66.9669 132.267 76.8852 119.712 76.8852Z" fill="#FCC9A7"/>
<path d="M102.695 51.3964C102.983 55.6247 99.7983 59.2789 95.5699 59.566C91.3416 59.8531 87.6874 56.6688 87.4003 52.4404C87.1132 48.2121 90.2975 44.5579 94.5259 44.2708C98.7542 44.0098 102.408 47.1941 102.695 51.3964Z" fill="#FCC9A7"/>
<path d="M151.191 51.3964C151.478 55.6247 148.294 59.2789 144.066 59.566C139.837 59.8531 136.183 56.6688 135.896 52.4404C135.609 48.2121 138.793 44.5579 143.022 44.2708C147.25 44.0098 150.904 47.1941 151.191 51.3964Z" fill="#FCC9A7"/>
<path d="M80.1434 213.892L32.4048 467.672L59.8369 467.411L129.631 214.388L80.1434 213.892Z" fill="#0C0C0C"/>
<path d="M156.907 214.442L153.905 467.935H124.907L113.344 216.034L156.907 214.442Z" fill="#0C0C0C"/>
<path d="M80.1439 99.1697C80.1439 99.1697 16.04 137.851 0.457857 164.683C-2.59595 169.929 1.37131 176.716 6.74811 179.508C12.6991 182.614 20.0335 180.5 23.4527 174.732L82.754 140.331C82.7801 140.331 80.1439 110.785 80.1439 99.1697Z" fill="#54585A"/>
<path d="M93.7427 27.7146L95.5436 46.9249H98.4408L98.8063 36.8499C98.8063 36.8499 100.32 32.987 107.08 24.6869C107.08 24.6869 111.491 35.9625 138.819 33.77L140.411 46.5072L143.23 46.194L144.718 32.5172C145.71 27.8973 146.049 23.5907 145.214 18.9447C143.517 9.54836 135.87 4.35427 113.788 10.9839C111.961 11.532 115.694 11.1666 113.788 10.9839C107.472 10.2792 90.8194 10.2009 93.7427 27.7146Z" fill="#2E2A33"/>
<path d="M126.264 212.62L120.052 279.074C119.817 281.58 121.513 283.848 123.993 284.318L200.208 298.882C203.001 299.43 205.663 297.449 205.976 294.63L212.945 231.465C213.206 229.011 211.614 226.74 209.186 226.166L132.215 208.313C129.344 207.635 126.551 209.67 126.264 212.62Z" fill="#AFAFAF"/>
<path d="M130.492 213.802L124.28 280.256C124.045 282.762 125.742 285.033 128.221 285.503L204.436 300.067C207.229 300.589 209.891 298.631 210.205 295.812L217.173 232.647C217.435 230.194 215.842 227.923 213.415 227.349L136.443 209.496C133.598 208.817 130.779 210.853 130.492 213.802Z" fill="#D1D1D1"/>
<path d="M170.166 281.611C177.735 283.856 182.068 291.816 179.824 299.386C177.579 306.955 169.618 311.288 162.049 309.069C154.48 306.824 150.147 298.864 152.365 291.294C154.636 283.699 162.571 279.366 170.166 281.611Z" fill="#FCC9A7"/>
<path d="M180.371 294.249C180.319 293.649 177.865 253.818 177.865 253.818L164.319 256.271L166.12 290.229L180.371 294.249Z" fill="#FCC9A7"/>
<path d="M156.907 99.1697C156.907 99.1697 177.422 113.865 178.727 134.797L185.148 183.737C185.513 186.608 185.67 189.479 185.566 192.376L183.086 266.816H154.923L154.401 186.242L156.907 99.1697Z" fill="#54585A"/>
<path d="M111.073 81.4089C108.88 83.0011 98.3096 88.9521 98.3096 88.9521C98.3096 88.9521 98.5967 103.83 120.991 102.629C140.698 101.585 140.567 89.5002 140.567 89.5002L126.968 81.4089H111.073Z" fill="#FCC9A7"/>
<path d="M32.04 155.042L70.3561 216.275L52.1899 233.475L0.562256 173.208L32.04 155.042Z" fill="#54585A"/>
<path d="M154.374 213.631V186.225L148.006 136.241" stroke="#424647" stroke-width="0.7693" stroke-miterlimit="10" stroke-linecap="round" stroke-linejoin="round"/>
</g>
</svg>
