<svg width="227" height="493" viewBox="0 0 227 493" fill="none" xmlns="http://www.w3.org/2000/svg">
<path d="M72.8048 220.037C79.5649 215.965 88.3609 218.132 92.4327 224.918C96.5044 231.678 94.3381 240.474 87.5518 244.546C80.7917 248.618 71.9956 246.451 67.9239 239.665C63.8522 232.931 66.0446 224.135 72.8048 220.037Z" fill="#FCC9A7"/>
<path d="M89.0133 221.049C88.5435 220.683 63.4344 191.189 63.4344 191.189L53.1768 203.613L75.8324 232.298L89.0133 221.049Z" fill="#FCC9A7"/>
<path d="M67.8461 451.001L61.4512 480.208L41.249 477.18L47.7743 448.365L67.8461 451.001Z" fill="#FCC9A7"/>
<path d="M158.416 448.406L158.651 478.318L138.318 479.832L138.266 450.286L158.416 448.406Z" fill="#FCC9A7"/>
<path d="M64.0085 475.46C63.5909 474.233 62.1032 473.711 61.033 474.494C58.945 476.008 55.2647 477.783 49.9401 477.156C44.4067 476.504 42.4233 473.581 41.7447 471.492C41.3793 470.396 40.2047 469.822 39.1346 470.24L4.864 483.969C2.77592 484.804 1.10541 486.422 0.244089 488.484C-0.591141 490.416 0.818378 492.582 2.93255 492.582L61.1638 493C63.4607 493.026 65.2877 491.12 65.1833 488.824L64.6874 477.574C64.6874 477.391 64.6352 477.209 64.583 477.026L64.0085 475.46Z" fill="#0C0C0C"/>
<path d="M136.256 475.46C136.674 474.233 138.188 473.711 139.232 474.494C141.32 476.008 145 477.783 150.325 477.156C155.858 476.504 157.816 473.581 158.52 471.492C158.886 470.396 160.06 469.822 161.13 470.24L195.401 483.969C197.489 484.804 199.159 486.422 200.021 488.484C200.856 490.416 199.447 492.582 197.332 492.582L139.101 493C136.804 493.026 134.977 491.12 135.082 488.824L135.578 477.574C135.578 477.391 135.63 477.209 135.682 477.026L136.256 475.46Z" fill="#0C0C0C"/>
<path d="M135.995 73.4089L117.907 74.9749L89.1436 91.1836V206.445H165.906V91.1836L135.995 73.4089Z" fill="#54585A"/>
<path d="M131.035 85.0092H125.841C120.465 85.0092 116.106 80.6503 116.106 75.2735V55.75H140.745V75.2735C140.771 80.6503 136.412 85.0092 131.035 85.0092Z" fill="#FCC9A7"/>
<path d="M116.106 65.6944C116.106 65.6944 119.943 73.3942 128.66 73.3942C137.378 73.3942 140.745 65.5378 140.745 65.5378L116.106 65.6944Z" fill="#F4BE9A"/>
<path d="M128.712 68.8853H127.903C115.349 68.8853 105.013 58.967 104.517 46.4124L104.073 33.9101C103.551 20.6246 114.174 9.58392 127.46 9.58392H129.156C139.205 9.58392 153.065 20.6246 152.543 33.9101L152.099 46.4124C151.603 58.967 141.267 68.8853 128.712 68.8853Z" fill="#FCC9A7"/>
<path d="M111.695 43.3964C111.983 47.6247 108.798 51.2789 104.57 51.566C100.342 51.8531 96.6874 48.6688 96.4003 44.4404C96.1132 40.2121 99.2975 36.5579 103.526 36.2708C107.754 36.0098 111.408 39.1941 111.695 43.3964Z" fill="#FCC9A7"/>
<path d="M160.191 43.3964C160.478 47.6247 157.294 51.2789 153.066 51.566C148.837 51.8531 145.183 48.6688 144.896 44.4404C144.609 40.2121 147.793 36.5579 152.022 36.2708C156.25 36.0098 159.904 39.1941 160.191 43.3964Z" fill="#FCC9A7"/>
<path d="M89.1434 205.892L41.4048 459.672L68.8369 459.411L138.631 206.388L89.1434 205.892Z" fill="#0C0C0C"/>
<path d="M165.907 206.442L162.905 459.935H133.907L122.344 208.034L165.907 206.442Z" fill="#0C0C0C"/>
<path d="M89.1439 91.1697C89.1439 91.1697 25.04 129.851 9.45786 156.683C6.40405 161.929 10.3713 168.716 15.7481 171.508C21.6991 174.614 29.0335 172.5 32.4527 166.732L91.754 132.331C91.7801 132.331 89.1439 102.785 89.1439 91.1697Z" fill="#54585A"/>
<path d="M102.743 19.7146L104.544 38.9249H107.441L107.806 28.8499C107.806 28.8499 109.32 24.987 116.08 16.6869C116.08 16.6869 120.491 27.9625 147.819 25.77L149.411 38.5072L152.23 38.194L153.718 24.5172C154.71 19.8973 155.049 15.5907 154.214 10.9447C152.517 1.54836 144.87 -3.64573 122.788 2.98391C124.694 3.16662 120.961 3.53203 122.788 2.98391C116.472 2.27919 99.8194 2.20089 102.743 19.7146Z" fill="#2E2A33"/>
<path d="M135.264 204.62L129.052 271.074C128.817 273.58 130.513 275.848 132.993 276.318L209.208 290.882C212.001 291.43 214.663 289.449 214.976 286.63L221.945 223.465C222.206 221.011 220.614 218.74 218.186 218.166L141.215 200.313C138.344 199.635 135.551 201.67 135.264 204.62Z" fill="#AFAFAF"/>
<path d="M139.492 205.802L133.28 272.256C133.045 274.762 134.742 277.033 137.221 277.503L213.436 292.067C216.229 292.589 218.891 290.631 219.205 287.813L226.173 224.647C226.434 222.194 224.842 219.923 222.415 219.349L145.443 201.496C142.598 200.817 139.779 202.853 139.492 205.802Z" fill="#D1D1D1"/>
<path d="M179.166 273.611C186.735 275.855 191.068 283.816 188.824 291.386C186.579 298.955 178.618 303.288 171.049 301.069C163.48 298.824 159.147 290.864 161.365 283.294C163.636 275.699 171.571 271.366 179.166 273.611Z" fill="#FCC9A7"/>
<path d="M189.371 286.249C189.319 285.649 186.865 245.818 186.865 245.818L173.319 248.271L175.12 282.229L189.371 286.249Z" fill="#FCC9A7"/>
<path d="M165.907 91.1697C165.907 91.1697 186.422 105.865 187.727 126.797L194.148 175.737C194.513 178.608 194.67 181.479 194.566 184.376L192.086 258.816H163.923L163.401 178.242L165.907 91.1697Z" fill="#54585A"/>
<path d="M120.073 73.4089C117.88 75.001 107.31 80.952 107.31 80.952C107.31 80.952 107.597 95.8296 129.991 94.6289C149.698 93.5849 149.567 81.5002 149.567 81.5002L135.968 73.4089H120.073Z" fill="#FCC9A7"/>
<path d="M41.04 147.042L79.3561 208.275L61.1899 225.475L9.56226 165.208L41.04 147.042Z" fill="#54585A"/>
<path d="M163.374 205.631V178.225L157.006 128.241" stroke="#424647" stroke-width="0.7693" stroke-miterlimit="10" stroke-linecap="round" stroke-linejoin="round"/>
</svg>
